<?xml version="1.0" standalone="no"?>
<!DOCTYPE svg PUBLIC "-//W3C//DTD SVG 1.0//EN" "http://www.w3.org/TR/2001/REC-SVG-20010904/DTD/svg10.dtd">
<svg xmlns="http://www.w3.org/2000/svg" xmlns:xlink="http://www.w3.org/1999/xlink" id="body_1" width="61" height="46">

<g transform="matrix(0.13575771 0 0 0.13575771 7.4999995 -0)">
	<g>
        <path d="M138.702 243.979C 139.825 243.979 140.897 244.19 141.894 244.557C 140.589 241.016 137.19 238.479 133.202 238.479C 128.09 238.479 123.931 242.638 123.931 247.75C 123.931 251.739 126.468 255.137 130.01 256.442C 129.642 255.44499 129.431 254.37299 129.431 253.24998C 129.431 248.137 133.59 243.979 138.702 243.979z" stroke="none" fill="#FFFFFF" fill-rule="nonzero" />
        <path d="M129.431 253.249C 129.431 254.372 129.642 255.444 130.01 256.44098C 130.01 256.44098 130.01 256.44098 130.01 256.44098C 131.00699 256.80798 132.079 257.01898 133.202 257.01898C 138.314 257.01898 142.47299 252.85999 142.47299 247.74799C 142.47299 246.62498 142.262 245.55298 141.89499 244.55598C 140.898 244.18898 139.82599 243.97798 138.70299 243.97798C 133.59 243.979 129.431 248.137 129.431 253.249z" stroke="none" fill="#FF8269" fill-rule="nonzero" />
        <path d="M108.737 247.749C 108.737 230.258 121.652 215.728 138.446 213.19C 136.735 212.931 134.984 212.795 133.201 212.795C 113.927 212.795 98.24701 228.475 98.24701 247.749C 98.24701 267.02298 113.92701 282.70398 133.201 282.70398C 134.983 282.70398 136.735 282.568 138.446 282.309C 121.651 279.771 108.737 265.241 108.737 247.749z" stroke="none" fill="#FFFFFF" fill-rule="nonzero" />
        <path d="M154.429 184.773C 148.387 184.51799 142.078 184.588 135.503 185.07199C 89.91801 188.42699 66.51301 204.59799 52.686005 225.33499C 60.645004 219.79099 69.48701 214.61699 79.147 210.273C 93.69501 197.078 115.283005 187.55699 149.048 185.07199C 150.865 184.938 152.653 184.846 154.429 184.773z" stroke="none" fill="#FFFFFF" fill-rule="nonzero" />
        <path d="M28.59 131.198C 64.91 103.92 117.747 78.296 164.225 65.52C 179.59201 61.295 195.056 59.153996 210.18701 59.153996C 221.667 59.153996 232.49802 60.394997 242.59201 62.470997C 228.85301 58.423996 213.44101 55.767 196.641 55.767C 181.509 55.767 166.04501 57.908997 150.679 62.133C 104.2 74.909 51.364 100.533005 15.044006 127.811005C 14.823007 131.731 15.0420065 139.177 19.040007 144.768C 21.485006 148.188 25.036007 150.462 29.846006 151.67601C 30.832006 151.059 32.077007 150.285 33.548008 149.37502C 33.210007 148.98601 32.890007 148.58002 32.586006 148.15501C 28.587 142.564 28.369 135.118 28.59 131.198z" stroke="none" fill="#FFFFFF" fill-rule="nonzero" />
        <path d="M90.602 221.72C 70.782 229.629 54.427 241.67 42.009 253.21C 49.468 260.70102 66.716995 274.733 95.550995 280.499C 87.90299 271.724 83.245995 260.27798 83.245995 247.75C 83.247 238.214 85.945 229.305 90.602 221.72z" stroke="none" fill="none" />
        <path d="M183.155 247.749C 183.155 258.115 179.977 267.748 174.548 275.735C 193.073 270.431 205.082 263.274 212.613 257.146C 219.009 251.942 222.82 246.987 224.964 243.556C 207.711 231.864 190.557 223.49 173.639 218.455C 179.623 226.69 183.155 236.814 183.155 247.749z" stroke="none" fill="none" />
        <path d="M269.322 223.428C 262.645 224.86499 255.54498 223.68 247.816 219.83699C 247.46199 220.16199 247.114 220.49399 246.748 220.80798C 241.776 225.07199 236.262 227.80098 230.978 229.54298C 233.468 231.18898 235.958 232.89198 238.448 234.66599C 246.528 238.92598 253.506 239.54698 259.766 236.55199C 265.485 233.81598 270.298 228.32498 274.228 221.86598C 272.653 222.536 271.02 223.062 269.322 223.428z" stroke="none" fill="#FF8269" fill-rule="nonzero" />
        <path d="M214.774 203.978C 210.418 207.858 205.547 210.632 200.684 212.637C 203.981 214.13599 207.281 215.749 210.582 217.47299C 214.274 217.61499 225.51 217.46399 234.559 211.271C 230.377 208.329 224.70401 204.741 217.64601 201.15799C 216.735 202.132 215.785 203.077 214.774 203.978z" stroke="none" fill="#FF8269" fill-rule="nonzero" />
        <path d="M167.56 201.356C 169.313 201.751 171.068 202.184 172.824 202.645C 175.84001 202.74701 191.38 202.822 202.616 194.539C 196.345 192.174 189.397 190.034 181.813 188.349C 178.122 193.367 173.358 197.723 167.56 201.356z" stroke="none" fill="#FF8269" fill-rule="nonzero" />
        <path d="M210.187 59.154C 195.055 59.154 179.591 61.295998 164.22499 65.52C 117.746994 78.296 64.90999 103.92 28.590988 131.198C 28.368988 135.118 28.587988 142.564 32.585987 148.155C 32.889988 148.579 33.209988 148.986 33.54799 149.375C 55.99899 135.489 131.857 89.744 168.16599 82.549C 182.78299 79.653 199.01099 78.184006 216.39899 78.184006C 244.80899 78.184006 272.474 82.020004 294.625 87.52501C 293.357 86.64901 292.056 85.77201 290.718 84.89501C 278.748 77.04701 262.414 68.31101 242.59299 62.47301C 242.59299 62.47301 242.59198 62.47301 242.59198 62.47301C 232.498 60.394 221.667 59.154 210.187 59.154z" stroke="none" fill="#FF8269" fill-rule="nonzero" />
        <path d="M336.721 104.337C 334.41702 101.67 321.444 87.186 299.403 72.652C 277.34402 58.106003 241.60901 40.766 196.64102 40.766C 180.16602 40.766 163.36401 43.087997 146.70302 47.669C 97.404 61.221 41.136 88.772 3.353 117.857C 1.879 118.991005 0.87899995 120.633 0.54799986 122.463005C 0.41799986 123.18301 -2.539 140.252 6.753 153.373C 12.002 160.785 19.86 165.378 30.108 167.025C 30.504 167.08899 30.901 167.12 31.298 167.12C 32.711 167.12 34.104 166.721 35.311 165.956C 36.271 165.34799 131.81 105.043 171.08101 97.260994C 184.74 94.55399 199.98701 93.18199 216.39801 93.18199C 263.221 93.18199 311.406 104.83299 327.032 115.71399C 328.351 116.63299 329.88702 117.04499 331.384 117.05899C 335.505 117.03399 338.838 113.68599 338.838 109.55899C 338.839 107.53 338.032 105.688 336.721 104.337zM29.846 151.676C 25.036001 150.463 21.486 148.189 19.04 144.76799C 15.042001 139.17699 14.823001 131.73099 15.044001 127.81099C 51.363 100.53299 104.2 74.90899 150.67801 62.132988C 166.04501 57.90799 181.509 55.766987 196.64001 55.766987C 213.44101 55.766987 228.85301 58.42399 242.59302 62.471985C 262.41302 68.31098 278.74802 77.04698 290.71802 84.89398C 292.05603 85.77198 293.35703 86.64798 294.62503 87.52398C 272.47504 82.01898 244.81003 78.18298 216.39903 78.18298C 199.01103 78.18298 182.78304 79.651985 168.16603 82.54798C 131.85603 89.74298 55.99903 135.48798 33.548035 149.37398C 32.077 150.285 30.832 151.059 29.846 151.676z" stroke="none" fill="#C03A3A" fill-rule="nonzero" />
        <path d="M138.446 213.19C 121.651 215.728 108.736 230.258 108.736 247.749C 108.736 265.241 121.651 279.771 138.445 282.309L138.445 282.309L138.44601 282.309C 155.24002 279.771 168.15501 265.241 168.15501 247.749C 168.155 230.259 155.241 215.728 138.446 213.19zM133.202 272.02C 119.81899 272.02 108.931 261.132 108.931 247.749C 108.931 234.366 119.819 223.478 133.202 223.478C 146.58499 223.478 157.47299 234.366 157.47299 247.749C 157.472 261.133 146.585 272.02 133.202 272.02z" stroke="none" fill="#FFAB97" fill-rule="nonzero" />
        <path d="M133.202 223.479C 119.81899 223.479 108.931 234.367 108.931 247.75C 108.931 261.133 119.819 272.021 133.202 272.021C 146.58499 272.021 157.47299 261.133 157.47299 247.75C 157.472 234.366 146.585 223.479 133.202 223.479zM123.931 247.749C 123.931 242.637 128.09 238.478 133.202 238.478C 137.191 238.478 140.58899 241.015 141.894 244.556C 142.261 245.553 142.472 246.625 142.472 247.748C 142.472 252.86 138.313 257.019 133.201 257.019C 132.078 257.019 131.006 256.808 130.009 256.441C 126.468 255.137 123.931 251.738 123.931 247.749z" stroke="none" fill="#C03A3A" fill-rule="nonzero" />
        <path d="M90.602 221.72C 70.782 229.629 54.427 241.67 42.009 253.21C 49.468 260.70102 66.716995 274.733 95.550995 280.499C 87.90299 271.724 83.245995 260.27798 83.245995 247.75C 83.247 238.214 85.945 229.305 90.602 221.72z" stroke="none" fill="none" />
        <path d="M202.616 194.539C 196.345 192.174 189.397 190.034 181.813 188.349C 178.12201 193.368 173.358 197.724 167.56 201.357C 169.313 201.752 171.068 202.185 172.824 202.646C 175.839 202.746 191.379 202.822 202.616 194.539z" stroke="none" fill="none" />
        <path d="M247.816 219.837C 247.46199 220.162 247.114 220.494 246.748 220.808C 241.776 225.07199 236.262 227.801 230.978 229.543C 233.468 231.189 235.958 232.892 238.448 234.666C 246.528 238.926 253.506 239.547 259.766 236.552C 265.485 233.81601 270.298 228.325 274.228 221.866C 272.65298 222.536 271.01898 223.062 269.322 223.428C 262.645 224.864 255.544 223.679 247.816 219.837z" stroke="none" fill="none" />
        <path d="M217.647 201.158C 216.735 202.132 215.785 203.07701 214.774 203.97801C 210.418 207.85802 205.547 210.63202 200.684 212.63701C 203.981 214.136 207.281 215.74901 210.582 217.473C 214.274 217.615 225.51 217.464 234.559 211.27101C 230.377 208.329 224.704 204.741 217.647 201.158z" stroke="none" fill="none" />
        <path d="M183.155 247.749C 183.155 258.115 179.977 267.748 174.548 275.735C 193.073 270.431 205.082 263.274 212.613 257.146C 219.009 251.942 222.82 246.987 224.964 243.556C 207.711 231.864 190.557 223.49 173.639 218.455C 179.623 226.69 183.155 236.814 183.155 247.749z" stroke="none" fill="none" />
        <path d="M79.148 210.273C 92.704 204.177 107.885 199.73 124.61 198.297C 124.624 198.29599 124.639 198.295 124.653 198.29399C 126.584 198.129 128.534 198.00299 130.505 197.92C 138.31601 197.133 153.313 194.47 163.978 185.458C 160.87599 185.13899 157.689 184.911 154.427 184.773C 152.65201 184.846 150.864 184.93799 149.049 185.07199C 115.284 187.557 93.696 197.077 79.148 210.273z" stroke="none" fill="#FF8269" fill-rule="nonzero" />
        <path d="M297.127 181.567C 293.69803 180.3 289.85602 181.692 288.031 184.85901C 279.299 200.016 272.555 207.388 266.165 208.764C 263.53 209.33 260.519 208.94 257.086 207.593C 260.586 200.713 262.55798 192.56601 262.956 183.205C 263.132 179.067 259.91998 175.569 255.78099 175.393C 251.63799 175.20601 248.14499 178.429 247.969 182.56801C 247.68599 189.21301 246.424 194.94402 244.206 199.72801C 239.74599 196.53201 233.597 192.54802 225.859 188.52802C 228.303 182.80301 229.694 176.34001 229.999 169.16801C 230.17499 165.03001 226.96199 161.53201 222.82399 161.35701C 218.67099 161.16101 215.18799 164.39401 215.012 168.53201C 214.79399 173.65501 213.853 178.22401 212.206 182.21901C 205.204 179.35501 197.36499 176.70502 188.733 174.58002C 190.065 170.28502 190.849 165.68602 191.057 160.79501C 191.233 156.65701 188.02 153.15901 183.882 152.98302C 179.74 152.78902 176.246 156.02002 176.07 160.15802C 175.888 164.44102 175.093 168.23602 173.83601 171.61002C 161.86601 169.77902 148.69002 169.06201 134.39902 170.11201C 59.540016 175.62102 36.850014 213.72702 24.555016 250.30801C 24.553015 250.31601 24.550016 250.32402 24.547016 250.33101C 24.538015 250.358 24.528017 250.38501 24.520016 250.412L24.520016 250.412L24.522017 250.41501C 23.769016 252.667 24.101017 255.22101 25.590017 257.24402C 26.816017 258.911 56.393017 298.06903 122.41002 298.07202C 122.41302 298.07202 122.415016 298.07202 122.41802 298.07202C 126.956024 298.07202 131.62602 297.881 136.29903 297.50403C 204.86803 291.97803 229.80502 264.50104 238.05002 250.89502C 248.00803 254.54501 257.462 254.28001 266.23602 250.08302C 292.76804 237.39003 301.53903 191.91002 301.90002 189.98003C 302.574 186.386 300.557 182.833 297.127 181.567zM181.813 188.348C 189.397 190.03401 196.34401 192.17401 202.616 194.53801C 191.38 202.82101 175.84 202.746 172.824 202.64401C 171.06801 202.184 169.313 201.75002 167.56 201.35501C 173.358 197.723 178.122 193.367 181.813 188.348zM135.503 185.072C 142.078 184.58801 148.386 184.518 154.427 184.77301C 157.689 184.91101 160.876 185.139 163.978 185.45801C 153.313 194.47 138.315 197.13301 130.505 197.92001C 128.53401 198.003 126.58401 198.128 124.65301 198.294C 124.63901 198.29501 124.62401 198.296 124.61001 198.29701C 107.88501 199.72902 92.70401 204.17702 79.14801 210.27301C 69.48701 214.617 60.64501 219.79102 52.686012 225.335C 66.513 204.598 89.918 188.427 135.503 185.072zM42.009 253.21C 54.427 241.67001 70.781 229.62901 90.602 221.72C 85.945 229.30501 83.246994 238.214 83.246994 247.749C 83.246994 260.27698 87.90299 271.723 95.551994 280.498C 66.717 274.733 49.468 260.7 42.009 253.21zM133.201 282.704C 113.927 282.704 98.24701 267.023 98.24701 247.74901C 98.24701 228.47601 113.92701 212.79501 133.201 212.79501C 134.98401 212.79501 136.735 212.93102 138.446 213.19002C 155.24 215.72801 168.155 230.25803 168.155 247.74902C 168.155 265.24103 155.24 279.77103 138.446 282.30902C 136.735 282.568 134.984 282.704 133.201 282.704zM212.614 257.146C 205.082 263.274 193.074 270.431 174.549 275.735C 179.978 267.748 183.15599 258.11398 183.15599 247.749C 183.15599 236.814 179.624 226.68999 173.63998 218.45499C 190.55798 223.48898 207.71198 231.86299 224.96498 243.55598C 222.821 246.988 219.009 251.942 212.614 257.146zM210.582 217.473C 207.28 215.748 203.98 214.136 200.684 212.63701C 205.548 210.632 210.418 207.858 214.774 203.97801C 215.785 203.07802 216.735 202.13202 217.647 201.158C 224.70401 204.741 230.377 208.32901 234.56 211.27101C 225.51 217.464 214.274 217.615 210.582 217.473zM259.766 236.552C 253.506 239.547 246.52798 238.926 238.448 234.666C 235.958 232.893 233.468 231.19 230.978 229.543C 236.262 227.8 241.776 225.071 246.748 220.808C 247.115 220.494 247.462 220.162 247.816 219.837C 255.545 223.679 262.645 224.864 269.322 223.42801C 271.02 223.06201 272.65298 222.53601 274.228 221.86601C 270.297 228.325 265.484 233.816 259.766 236.552z" stroke="none" fill="#C03A3A" fill-rule="nonzero" />
	</g>
	<g>
	</g>
	<g>
	</g>
	<g>
	</g>
	<g>
	</g>
	<g>
	</g>
	<g>
	</g>
	<g>
	</g>
	<g>
	</g>
	<g>
	</g>
	<g>
	</g>
	<g>
	</g>
	<g>
	</g>
	<g>
	</g>
	<g>
	</g>
	<g>
	</g>
</g>
</svg>